<svg id="visual" viewBox="0 0 1280 780" width="1280" height="780" xmlns="http://www.w3.org/2000/svg" xmlns:xlink="http://www.w3.org/1999/xlink" version="1.1"><g transform="translate(1317.6906730494889 868.5630796796358)"><path d="M515.9 -615.1C650.2 -612.6 727.9 -437.2 651.8 -299.5C575.7 -161.9 345.8 -62.1 281.5 77.8C217.2 217.7 318.4 397.6 299.1 431.7C279.8 465.8 139.9 353.9 54.1 279.4C-31.7 205 -63.5 168 -138 151.9C-212.5 135.8 -329.7 140.5 -468.4 68.5C-607.1 -3.6 -767.2 -152.4 -756.6 -264.6C-745.9 -376.7 -564.6 -452.1 -410 -448C-255.5 -444 -127.7 -360.5 31.5 -403.9C190.8 -447.3 381.7 -617.7 515.9 -615.1" fill="#c4c4c4"></path></g></svg>