<svg id="visual" viewBox="0 0 1280 780" width="1280" height="780" xmlns="http://www.w3.org/2000/svg" xmlns:xlink="http://www.w3.org/1999/xlink" version="1.1"><g transform="translate(690.988400559308 380.84365046840867)"><path d="M210.3 -296.6C248.9 -261.3 240.4 -168.3 248.8 -92.6C257.3 -16.8 282.7 41.6 291.7 119.7C300.6 197.8 293.2 295.5 241.8 324C190.4 352.5 95.2 311.7 16.8 288.7C-61.7 265.6 -123.4 260.2 -174.8 231.7C-226.1 203.3 -267.1 151.7 -313.6 84.1C-360 16.5 -411.8 -67.1 -392.9 -128.4C-373.9 -189.7 -284.3 -228.7 -207 -251.5C-129.7 -274.2 -64.9 -280.6 10.5 -295C85.8 -309.4 171.6 -331.9 210.3 -296.6" fill="#96c2ff"></path></g></svg>