<svg id="visual" viewBox="0 0 2000 1200" width="2000" height="1200" xmlns="http://www.w3.org/2000/svg" xmlns:xlink="http://www.w3.org/1999/xlink" version="1.1"><g transform="translate(1753.4414287336822 1117.0436273804567)"><path d="M594.8 -700.5C867.6 -750.1 1252.5 -748.9 1318 -602.7C1383.6 -456.5 1129.8 -165.3 1074.2 147.6C1018.6 460.5 1161.1 795.1 1044.8 875.3C928.6 955.5 553.4 781.5 308.9 685.9C64.4 590.4 -49.5 573.5 -192.2 570.1C-334.9 566.8 -506.4 577.1 -557.2 495.6C-608 414 -538.1 240.7 -594.3 65.5C-650.5 -109.7 -832.8 -286.6 -835.6 -423.6C-838.4 -560.6 -661.7 -657.6 -492.5 -655.3C-323.3 -653.1 -161.7 -551.5 -0.4 -551C160.9 -550.4 321.9 -650.8 594.8 -700.5" fill="#4483b2"></path></g></svg>