<svg id="visual" viewBox="0 0 1280 780" width="1280" height="780" xmlns="http://www.w3.org/2000/svg" xmlns:xlink="http://www.w3.org/1999/xlink" version="1.1"><g transform="translate(651.4181917655953 288.59116203258304)"><path d="M148.2 -167.4C221.9 -150.4 332.1 -147 366.5 -104.2C401 -61.3 359.8 21.1 314.5 84.2C269.2 147.2 219.8 190.9 166.7 254.9C113.6 318.9 56.8 403.2 -5 410.1C-66.8 417 -133.6 346.4 -200 286.7C-266.5 227.1 -332.5 178.3 -370.6 109.1C-408.6 39.9 -418.8 -49.8 -364.3 -87.8C-309.8 -125.8 -190.7 -112.2 -119.2 -130C-47.8 -147.7 -23.9 -196.9 6.7 -206.1C37.2 -215.2 74.5 -184.5 148.2 -167.4" fill="#96c2ff"></path></g></svg>